Coordinates
version=1
nRows=12
nColumns=42
inDegrees=yes

Units are S.I. units (second, meters, Newtons, ...)
If the header above contains a line with 'inDegrees', this indicates whether rotational values are in degrees (yes) or radians (no).

endheader
time	pelvis_tilt	pelvis_list	pelvis_rotation	pelvis_tx	pelvis_ty	pelvis_tz	hip_flexion_r	hip_adduction_r	hip_rotation_r	knee_angle_r	knee_adduction_r	knee_angle_r_beta	ankle_angle_r	subtalar_angle_r	mtp_angle_r	hip_flexion_l	hip_adduction_l	hip_rotation_l	knee_angle_l	knee_adduction_l	knee_angle_l_beta	ankle_angle_l	subtalar_angle_l	mtp_angle_l	lumbar_extension	lumbar_bending	lumbar_rotation	arm_flex_r	arm_add_r	arm_rot_r	elbow_flex_r	pro_sup_r	wrist_flex_r	wrist_dev_r	arm_flex_l	arm_add_l	arm_rot_l	elbow_flex_l	pro_sup_l	wrist_flex_l	wrist_dev_l
      0.60000000	      6.49883891	     -0.66079714	      8.84429203	     -2.03070241	      0.83377671	      0.11774924	     26.15487860	      1.71188781	     -3.55742122	     29.00980797	     -1.64620205	      0.50631666	      8.83343751	    -18.26126271	     -9.53678418	      1.46432070	      2.90517483	    -10.51571391	     43.57579636	    -15.24177218	      0.76054112	     37.12793993	     -8.50647140	     -9.53678418	    -32.62289246	      4.50422452	     -7.37485735	      5.01567247	     -6.64600390	     -8.11583261	     27.58067856	     90.00000001	      0.00000000	      0.00000000	     21.71182444	    -12.35273142	     -0.21471614	     47.07163340	     90.00000001	      0.00000000	      0.00000000
      0.61000000	      6.80133109	     -0.88751355	      8.73652321	     -2.02030576	      0.83396549	      0.11977883	     25.86996026	      2.44724789	     -2.85695024	     30.45045861	     -1.59076355	      0.53146076	      8.73033578	    -18.41699831	     -9.52483169	      0.78137726	      2.41843814	    -10.42244167	     44.54557785	    -15.45091328	      0.77746700	     36.71226274	     -8.66565728	     -9.52483169	    -32.83949850	      4.80480747	     -7.05044527	      5.02696096	     -6.86850884	     -8.23090525	     27.52232018	     90.00000001	      0.00000000	      0.00000000	     21.39578568	    -12.19942470	     -0.30546711	     46.98036432	     90.00000001	      0.00000000	      0.00000000
      0.62000000	      7.07792560	     -1.11017707	      8.68386467	     -2.01003270	      0.83438397	      0.12175021	     25.52950715	      3.12803944	     -2.19336616	     31.77125719	     -1.47845713	      0.55451305	      8.68746173	    -18.60448066	     -9.51371256	      0.33070105	      1.97557679	    -10.23626660	     45.86183092	    -15.71131884	      0.80043995	     35.99820536	     -8.95705703	     -9.51371256	    -33.03220825	      5.11017427	     -6.71983838	      5.09030252	     -7.09656786	     -8.31591309	     27.46005509	     90.00000001	      0.00000000	      0.00000000	     21.01505739	    -12.01147153	     -0.42261859	     46.89656200	     90.00000001	      0.00000000	      0.00000000
      0.63000000	      6.92436692	     -1.30025142	      8.69128158	     -2.00030515	      0.83453582	      0.12372256	     25.60275160	      3.63387090	     -1.54322101	     32.90772617	     -1.22557474	      0.57434817	      8.74466906	    -18.80301448	     -9.38896674	      0.59542897	      1.91116659	     -8.37695336	     47.92796703	    -15.22454698	      0.83650083	     33.53610956	    -12.77995157	     -9.38896674	    -32.82740557	      5.34756932	     -6.55481398	      5.29985280	     -7.14968927	     -8.64587367	     27.09977920	     90.00000001	      0.00000000	      0.00000000	     20.58055834	    -11.56398999	     -1.64691091	     46.75902782	     90.00000001	      0.00000000	      0.00000000
      0.64000000	      7.11798232	     -1.54292957	      8.70525745	     -1.99042306	      0.83537852	      0.12580972	     25.07022766	      4.27932139	     -1.24324859	     33.63962982	     -1.14945103	      0.58712230	      9.06609812	    -18.88002136	     -9.36728318	      0.73289887	      1.40880619	     -7.77763416	     50.08168855	    -15.14409706	      0.87409036	     32.02521371	    -13.18551212	     -9.36728318	    -32.96463616	      5.64916966	     -6.28718116	      5.43038578	     -7.35013197	     -8.66806379	     27.09913554	     90.00000001	      0.00000000	      0.00000000	     20.13517407	    -11.39356503	     -1.74098590	     46.57946553	     90.00000001	      0.00000000	      0.00000000
      0.65000000	      6.96755038	     -1.67234890	      8.74368056	     -1.98108989	      0.83598257	      0.12775824	     24.91493291	      4.63021325	     -1.23949246	     34.29497575	     -1.04842842	      0.59856024	      9.38711530	    -18.90279995	     -9.29151322	      1.34919552	      1.44174531	     -5.39564735	     52.73051188	    -14.18232093	      0.92032105	     29.41012535	    -16.15248292	     -9.29151322	    -32.81045171	      5.84488410	     -6.19035113	      5.70463458	     -7.49394775	     -8.52701133	     27.08930606	     90.00000001	      0.00000000	      0.00000000	     19.67162029	    -11.15242103	     -2.26721131	     46.13253640	     90.00000001	      0.00000000	      0.00000000
      0.66000000	      6.93249635	     -1.90052289	      8.84868380	     -1.97175326	      0.83685994	      0.12981074	     24.41812623	      5.12405517	     -1.65142180	     34.52193466	     -1.17634980	      0.60252142	      9.91806023	    -18.87843659	     -9.23554546	      2.13412758	      1.10717352	     -3.41409534	     55.59216590	    -13.13728972	      0.97026633	     27.08006938	    -17.44778465	     -9.23554546	    -32.74382815	      6.14545966	     -6.04942871	      5.89676336	     -7.64243972	     -8.35384105	     27.16217026	     90.00000001	      0.00000000	      0.00000000	     19.20633611	    -10.95366468	     -2.60050477	     45.69445193	     90.00000001	      0.00000000	      0.00000000
      0.67000000	      6.80804557	     -2.13862474	      8.99002889	     -1.96264495	      0.83766685	      0.13185240	     23.94735247	      5.58889141	     -2.37954622	     34.55850587	     -1.42330228	      0.60315971	     10.48802059	    -18.80885733	     -9.19092502	      3.19634462	      0.78137660	     -1.16911673	     58.56802239	    -11.80886423	      1.02220483	     24.83257176	    -18.26550178	     -9.19092502	    -32.58758635	      6.43802364	     -5.91496300	      6.15485699	     -7.81084666	     -8.15278402	     27.32718257	     90.00000001	      0.00000000	      0.00000000	     18.75335933	    -10.75107480	     -2.89456044	     45.19766026	     90.00000001	      0.00000000	      0.00000000
      0.68000000	      6.62892694	     -2.41379794	      9.17630814	     -1.95374020	      0.83835675	      0.13382993	     23.48245933	      6.05331373	     -3.36757473	     34.43859364	     -1.76204555	      0.60106685	     11.08032180	    -18.70597896	     -9.12189060	      4.47484011	      0.40531793	      1.59525396	     61.60062774	     -9.90472221	      1.07513378	     23.00645244	    -18.71996917	     -9.12189060	    -32.37345268	      6.78414162	     -5.79304816	      6.39076500	     -8.00372991	     -7.77336807	     27.57390653	     90.00000001	      0.00000000	      0.00000000	     18.34980243	    -10.50064619	     -3.36174575	     44.45164465	     90.00000001	      0.00000000	      0.00000000
      0.69000000	      6.38828253	     -2.69628514	      9.37677970	     -1.94500525	      0.83888682	      0.13573082	     23.06742507	      6.48701826	     -4.48541481	     34.24729042	     -2.11433836	      0.59772798	     11.71049699	    -18.54519425	     -9.05541206	      5.93757688	      0.04442314	      4.44645579	     64.48709653	     -7.80399462	      1.12551216	     21.34701033	    -18.98493567	     -9.05541206	    -32.09032967	      7.13417488	     -5.66880177	      6.63705875	     -8.22427888	     -7.37942022	     27.91514667	     90.00000001	      0.00000000	      0.00000000	     17.92163909	    -10.24599982	     -3.76974068	     43.70756441	     90.00000001	      0.00000000	      0.00000000
      0.70000000	      6.13120676	     -2.96796892	      9.59943983	     -1.93641710	      0.83928628	      0.13750661	     22.66996047	      6.88173047	     -5.61142715	     34.04404497	     -2.45565691	      0.59418068	     12.37356420	    -18.34049075	     -9.01239244	      7.49957103	     -0.29127511	      7.22635140	     67.11967334	     -5.64842826	      1.17145929	     19.98114996	    -19.14784971	     -9.01239244	    -31.78242055	      7.48053513	     -5.56716499	      6.88497143	     -8.44287313	     -7.09973994	     28.29325488	     90.00000001	      0.00000000	      0.00000000	     17.45036721	    -10.02033056	     -4.06515875	     43.00536251	     90.00000001	      0.00000000	      0.00000000
      0.71000000	      5.87636714	     -3.24839789	      9.79803914	     -1.92792522	      0.83962646	      0.13917122	     22.27338458	      7.28811796	     -6.64208253	     33.80942767	     -2.73814292	      0.59008583	     13.03512892	    -18.11292235	     -8.96414696	      9.07815823	     -0.59717000	      9.86009040	     69.39652388	     -3.53754201	      1.21119783	     19.34115099	    -19.26309826	     -8.96414696	    -31.48988799	      7.83444954	     -5.42782476	      7.17344199	     -8.69139132	     -6.75057352	     28.76827440	     90.00000001	      0.00000000	      0.00000000	     17.05741866	     -9.76126302	     -4.45942761	     42.14726809	     90.00000001	      0.00000000	      0.00000000
